<?xml version="1.0" encoding="UTF-8"?>
<svg width="222px" height="50px" viewBox="0 0 222 50" version="1.1" xmlns="http://www.w3.org/2000/svg" xmlns:xlink="http://www.w3.org/1999/xlink">
    <!-- Generator: Sketch 3.8.3 (29802) - http://www.bohemiancoding.com/sketch -->
    <title>logo-text</title>
    <desc>Created with Sketch.</desc>
    <defs></defs>
    <g id="Page-1" stroke="none" stroke-width="1" fill="none" fill-rule="evenodd">
        <g id="logo-text" fill="#000000">
            <path d="M91.2426444,34.5142287 C96.4593005,34.5142287 100.510952,30.3688226 100.537852,24.908658 C100.564753,19.6009291 96.5544876,15.5063349 91.337831,15.5063349 L86.3591422,15.5063349 L86.2639552,34.5142287 L91.2426444,34.5142287 L91.2426444,34.5142287 Z M91.3771473,7.82103152 C101.479375,7.82103152 108.746689,14.8478971 108.694956,24.908658 C108.645294,35.1197375 101.305556,42.1974148 91.203328,42.1974148 L78.2103152,42.1974148 L78.3820655,7.82103152 L91.3771473,7.82103152 Z M212.96075,42.1974148 L204.946427,42.1974148 L205.010574,29.3060065 L191.874782,29.3060065 L191.808564,42.1974148 L183.794241,42.1974148 L183.96806,7.82103152 L191.982384,7.82103152 L191.912028,21.6228202 L205.049891,21.6228202 L205.120246,7.82103152 L213.13457,7.82103152 L212.96075,42.1974148 Z M120.976797,36.4853079 L118.81233,42.4006627 L110.276548,42.4006627 L124.157282,7.82103152 L131.792927,7.82103152 L145.276359,42.4006627 L136.78817,42.4006627 L134.636118,36.4853079 L120.976797,36.4853079 Z M127.90061,17.7801685 L123.668931,29.2064998 L132.016409,29.2064998 L127.90061,17.7801685 Z M167.038876,22.6835192 L162.54026,21.5720083 C160.123341,21.0151943 158.846594,20.2064379 158.856941,18.3369825 C158.867287,16.1118437 160.723432,14.898709 163.473506,14.898709 C166.416023,14.898709 167.932805,16.3299115 168.510135,18.4936526 L176.050593,15.8387296 C173.896472,9.44277876 167.492049,7.82103152 162.987225,7.82103152 C155.399173,7.82103152 150.161824,12.1675682 150.126646,19.0441151 C150.099746,24.5042798 153.071232,27.6884936 159.417716,29.1535707 L164.723351,30.4175174 C167.471356,30.9743314 168.129387,32.187466 168.123179,33.3497888 C168.114902,35.2213613 166.542249,36.396387 163.556277,36.396387 C159.990907,36.396387 157.607095,34.7809913 156.911817,32.0879594 L149.381705,34.738648 C151.277166,40.9885148 157.004935,43.6751952 163.281063,43.6751952 C171.34298,43.6751952 176.677585,39.3731191 176.710693,32.4965719 C176.741733,26.5833343 172.913563,24.0490896 167.038876,22.6835192 Z M26.3338202,0 L0,0 L6.0553348,50 L26.3338202,50 C39.6617765,50 50.4663063,38.6363637 50.4663063,25 C50.4663063,11.3636364 39.6617765,0 26.3338202,0 Z"></path>
        </g>
    </g>
</svg>